<svg xmlns="http://www.w3.org/2000/svg" width="18.652" height="17" viewBox="0 0 18.652 17">
    <path d="M1.207 25.367h16.231a1.2 1.2 0 0 1 1.21 1.163v5.924a1.2 1.2 0 0 1-1.21 1.163h-2.2v4.337H3.407v-4.337h-2.2A1.2 1.2 0 0 1 0 32.454V26.53a1.2 1.2 0 0 1 1.21-1.163zm13.149 4.6H4.288v7.14h10.068zm3.081-3.7H1.207a.3.3 0 0 0-.33.265v5.924a.348.348 0 0 0 .33.317h2.2v-3.651h11.83v3.649h2.2a.348.348 0 0 0 .33-.317v-5.923a.3.3 0 0 0-.33-.265z" transform="translate(0.004 -20.954)"/>
    <path fill-rule="evenodd" d="M12.406 37.028a.746.746 0 1 1-1.492 0 .746.746 0 1 1 1.492 0" transform="translate(-8.613 -30.405)"/>
    <path d="M18.289 8.28V4.426h10.943V8.28h-.814V5.421H19.1V8.28z" transform="translate(-14.434 -4.426)"/>
    <path d="M28.613 57.816h9.014v.994h-9.014z" transform="translate(-23.794 -47.928)"/>
    <path d="M28.613 72.27h9.014v1h-9.014z" transform="translate(-23.794 -59.706)"/>
</svg>
