<svg xmlns="http://www.w3.org/2000/svg" width="17" height="17" viewBox="0 0 17 17">
    <path d="M13.97 0a3.045 3.045 0 0 0-3.035 3.035 2.979 2.979 0 0 0 .108.786L5.425 6.63a3.035 3.035 0 1 0 0 3.741l5.617 2.809a3.006 3.006 0 0 0-.108.785 3.049 3.049 0 1 0 .651-1.87L5.969 9.286a3.011 3.011 0 0 0 .108-.786 2.974 2.974 0 0 0-.108-.785l5.617-2.809A3.033 3.033 0 1 0 13.97 0zm0 1.215a1.822 1.822 0 1 1-1.822 1.822 1.813 1.813 0 0 1 1.822-1.822zM3.04 6.679A1.822 1.822 0 1 1 1.219 8.5 1.813 1.813 0 0 1 3.04 6.679zm10.93 5.465a1.822 1.822 0 1 1-1.822 1.822 1.813 1.813 0 0 1 1.822-1.822z" transform="translate(-0.006)"/>
</svg>
