<svg xmlns="http://www.w3.org/2000/svg" width="22.703" height="32.05" viewBox="0 0 22.703 32.05">
    <g>
        <path fill="#037883" d="M25.933 32.05a.671.671 0 0 1-.533-.265c-.442-.585-10.818-14.391-10.818-20.508a11.352 11.352 0 0 1 22.7 0c0 6.2-10.377 19.929-10.821 20.511a.671.671 0 0 1-.531.264z" transform="translate(-321 -805.982) translate(306.418 805.982)"/>
        <path fill="#fff" fill-rule="evenodd" d="M20.784 21.1l-6.523 6.785a.9.9 0 0 1-1.308 0L9.7 24.471a.992.992 0 0 1 0-1.365.9.9 0 0 1 1.308 0l2.615 2.731 5.869-6.1a.9.9 0 0 1 1.308 0 1.006 1.006 0 0 1-.014 1.365z" transform="translate(-321 -805.982) translate(317.201 794.58)"/>
    </g>
</svg>
