<?xml version="1.0" encoding="iso-8859-1"?>
<!-- Generator: Adobe Illustrator 19.0.0, SVG Export Plug-In . SVG Version: 6.00 Build 0)  -->
<svg version="1.1" id="Capa_1" xmlns="http://www.w3.org/2000/svg" xmlns:xlink="http://www.w3.org/1999/xlink" x="0px" y="0px"
	 viewBox="0 0 512.001 512.001" style="enable-background:new 0 0 512.001 512.001;" xml:space="preserve">
<g>
	<g>
		<path fill="#fff" d="M510.396,131.123C455.129,60.816,363.262,18.157,263.5,16.117V7.5c0-4.142-3.358-7.5-7.5-7.5c-4.142,0-7.5,3.358-7.5,7.5
			v8.617C148.738,18.157,56.871,60.816,1.604,131.123c-1.662,2.115-2.039,4.94-1.049,7.414l-0.017,0.007l9.985,24.964
			c4.819,12.047,16.317,19.832,29.292,19.832h79.663c12.976,0,24.473-7.785,29.291-19.832l3.022-7.555l3.022,7.555
			c4.818,12.047,16.316,19.832,29.292,19.832H248.5v281.816c-30.228,1.714-56.211,13.719-68.778,31.845h-19.915
			c-4.142,0-7.5,3.358-7.5,7.5c0,4.142,3.358,7.5,7.5,7.5h192.387c4.142,0,7.5-3.358,7.5-7.5c0-4.142-3.358-7.5-7.5-7.5h-19.915
			c-12.567-18.125-38.551-30.131-68.778-31.845V183.339h64.396c12.976,0,24.473-7.785,29.292-19.832l3.022-7.555l3.022,7.555
			c4.819,12.047,16.316,19.832,29.292,19.832h79.663c12.975,0,24.473-7.784,29.292-19.832l9.985-24.963l-0.017-0.007
			C512.435,136.063,512.059,133.238,510.396,131.123z M134.841,157.937c-2.528,6.318-8.558,10.402-15.364,10.402H39.814
			c-6.806,0-12.837-4.083-15.365-10.402l-5.871-14.679h122.135L134.841,157.937z M146.416,128.258H23.576
			c44.636-49.932,109.919-83.136,182.536-93.641C182.094,53.331,161.257,85.533,146.416,128.258z M311.948,497H200.052
			c12.798-10.529,33.405-17.064,55.948-17.064C278.543,479.936,299.149,486.472,311.948,497z M343.261,157.937
			c-2.528,6.318-8.559,10.402-15.365,10.402H184.104c-6.806,0-12.837-4.083-15.365-10.402l-5.871-14.679h186.264L343.261,157.937z
			 M365.583,128.258c-1.324-3.811-2.701-7.566-4.119-11.208c-1.503-3.86-5.849-5.771-9.711-4.267
			c-3.859,1.503-5.77,5.851-4.267,9.71c0.736,1.89,1.457,3.819,2.169,5.764H162.354c10.407-28.402,23.818-52.093,39.099-68.91
			C218.286,40.823,237.147,31.032,256,31.032c28.087,0,55.424,21.403,76.977,60.268c2.009,3.623,6.574,4.931,10.196,2.922
			c3.623-2.009,4.931-6.574,2.922-10.196c-11.804-21.286-25.421-37.913-40.171-49.404c72.602,10.51,137.871,43.712,182.5,93.636
			H365.583z M487.551,157.936c-2.528,6.319-8.559,10.403-15.365,10.403h-79.663c-6.806,0-12.837-4.083-15.365-10.402l-5.871-14.679
			h122.135L487.551,157.936z"/>
	</g>
</g>
<g>
</g>
<g>
</g>
<g>
</g>
<g>
</g>
<g>
</g>
<g>
</g>
<g>
</g>
<g>
</g>
<g>
</g>
<g>
</g>
<g>
</g>
<g>
</g>
<g>
</g>
<g>
</g>
<g>
</g>
</svg>
