<?xml version="1.0" encoding="UTF-8" standalone="no"?>
<!-- Created with Inkscape (http://www.inkscape.org/) -->

<svg
   xmlns:dc="http://purl.org/dc/elements/1.1/"
   xmlns:cc="http://creativecommons.org/ns#"
   xmlns:rdf="http://www.w3.org/1999/02/22-rdf-syntax-ns#"
   xmlns:svg="http://www.w3.org/2000/svg"
   xmlns="http://www.w3.org/2000/svg"
   xmlns:sodipodi="http://sodipodi.sourceforge.net/DTD/sodipodi-0.dtd"
   xmlns:inkscape="http://www.inkscape.org/namespaces/inkscape"
   width="142.53224mm"
   height="144.52574mm"
   viewBox="0 0 142.53224 144.52574"
   version="1.1"
   id="svg8"
   inkscape:version="0.92.4 (5da689c313, 2019-01-14)"
   sodipodi:docname="DK_muh_bh_final.svg">
  <defs
     id="defs2" />
  <sodipodi:namedview
     id="base"
     pagecolor="#ffffff"
     bordercolor="#666666"
     borderopacity="1.0"
     inkscape:pageopacity="0.0"
     inkscape:pageshadow="2"
     inkscape:zoom="0.70710678"
     inkscape:cx="195.78697"
     inkscape:cy="238.67263"
     inkscape:document-units="mm"
     inkscape:current-layer="layer1"
     showgrid="false"
     inkscape:window-width="1920"
     inkscape:window-height="1017"
     inkscape:window-x="-8"
     inkscape:window-y="-8"
     inkscape:window-maximized="1"
     fit-margin-top="0"
     fit-margin-left="0"
     fit-margin-right="0"
     fit-margin-bottom="0" />
  <metadata
     id="metadata5">
    <rdf:RDF>
      <cc:Work
         rdf:about="">
        <dc:format>image/svg+xml</dc:format>
        <dc:type
           rdf:resource="http://purl.org/dc/dcmitype/StillImage" />
        <dc:title />
      </cc:Work>
    </rdf:RDF>
  </metadata>
  <g
     inkscape:label="Ebene 1"
     inkscape:groupmode="layer"
     id="layer1"
     transform="translate(-31.624413,-18.444167)"
     style="display:inline">
    <path
       style="fill:#004464;fill-opacity:1;stroke-width:0.22635819"
       d="m 153.92926,163.24687 c -0.14545,-0.13979 -0.50154,-0.4001 -0.79132,-0.57847 -0.63971,-0.39375 -1.54611,-1.97452 -1.76656,-3.08088 -0.0888,-0.44592 -0.2392,-0.81076 -0.33411,-0.81076 -0.0949,0 -0.139,-0.76829 -0.098,-1.70731 l 0.0746,-1.7073 -0.60209,0.0317 c -0.7591,0.04 -0.78947,0.57023 -0.10653,1.85976 0.41624,0.78595 0.4492,1.01592 0.20522,1.43182 -0.38903,0.66314 -1.77721,0.87753 -2.90311,0.44836 -0.46213,-0.17615 -0.90225,-0.26369 -0.97805,-0.19454 -0.0758,0.0692 -0.13782,0.0122 -0.13782,-0.1265 0,-0.15751 -0.43171,-0.25224 -1.1496,-0.25224 -1.26245,0 -2.64226,0.35642 -2.64226,0.68252 0,0.1143 -0.0946,0.1545 -0.21014,0.0893 -0.11557,-0.0652 -0.34776,0.0328 -0.51597,0.2177 -0.50625,0.55649 -1.56547,0.95628 -2.5336,0.95628 -1.06766,0 -2.57605,-0.8043 -3.89347,-2.07607 -1.52232,-1.46956 -3.09623,-2.22414 -4.69637,-2.25158 -0.32587,-0.006 -0.7995,-0.153 -1.05251,-0.32758 -0.25302,-0.17459 -0.61686,-0.31743 -0.80853,-0.31743 -0.63321,0 -3.30532,-1.57075 -3.56848,-2.09766 -0.6505,-1.30244 -0.0184,-1.86408 1.87769,-1.66838 0.75539,0.078 1.48565,0.0785 1.62281,0.001 0.30733,-0.17327 0.0834,-0.77526 -0.28851,-0.77562 -0.14898,-1.5e-4 -0.59082,-0.25123 -0.98185,-0.55795 -0.66593,-0.52236 -0.71615,-0.67026 -0.79259,-2.33456 -0.0655,-1.42635 -0.007,-1.83331 0.29624,-2.06295 0.20782,-0.15735 0.37785,-0.42095 0.37785,-0.58579 0,-0.46805 1.22296,-1.62031 2.06606,-1.94662 0.92947,-0.35974 2.28693,-0.38157 2.98558,-0.048 0.68383,0.32648 2.53207,2.15476 2.53207,2.50473 0,0.15123 0.16493,0.27497 0.36651,0.27497 0.20158,0 0.54818,0.29125 0.77022,0.64724 0.22205,0.35598 0.46788,0.64785 0.54631,0.64861 0.0784,6.4e-4 0.47005,0.26891 0.87026,0.59592 1.04885,0.85698 1.24026,0.97532 2.42352,1.49842 1.92488,0.85096 2.32218,0.86169 3.10103,0.0838 0.37996,-0.3795 0.69082,-0.87062 0.69082,-1.09138 0,-1.55021 1.78134,-1.46257 3.14014,0.1545 0.42416,0.50478 0.65172,0.65021 0.65172,0.41648 0,-0.19744 -0.0852,-0.35904 -0.18938,-0.35904 -0.30025,0 -0.75858,-1.35826 -0.75858,-2.24806 0,-0.62358 0.17426,-0.97101 0.75085,-1.49703 0.47713,-0.43527 0.78671,-0.58684 0.84922,-0.41577 0.11494,0.31457 0.68093,0.35915 0.87743,0.0691 0.16129,-0.23809 -4.61468,-2.39432 -5.30333,-2.39432 -0.3132,0 -0.43312,-0.10474 -0.34897,-0.30478 0.0758,-0.18027 -0.062,-0.35983 -0.33734,-0.43956 -0.56704,-0.16418 -0.83458,-0.96018 -0.46082,-1.37102 0.32855,-0.36115 1.4641,-0.20431 1.98921,0.27474 0.19727,0.17996 0.61236,0.3272 0.92244,0.3272 0.31007,0 0.68191,0.17026 0.82629,0.37835 0.17924,0.25832 0.2345,0.27546 0.17419,0.054 -0.0486,-0.17836 -0.30522,-0.41399 -0.57031,-0.52361 -0.26509,-0.10962 -0.71957,-0.51563 -1.00996,-0.90226 -0.66908,-0.8908 -0.35785,-1.65244 0.65083,-1.59272 1.41786,0.0839 1.91275,-0.21102 1.46441,-0.8728 -0.15679,-0.23144 -0.3489,-0.21734 -1.02466,0.0752 -0.62779,0.27177 -0.9833,0.30745 -1.45011,0.14554 -0.8099,-0.28091 -0.95733,-0.68985 -0.52417,-1.454 0.32956,-0.58139 0.32272,-0.62554 -0.10135,-0.65469 -0.2501,-0.0172 -0.45474,0.0496 -0.45474,0.14839 0,0.39489 -0.73193,0.39329 -1.87839,-0.004 -1.00494,-0.34835 -1.8335,-0.41961 -4.93764,-0.42468 -5.63978,-0.009 -6.78382,-0.49072 -7.05892,-2.97103 -0.11818,-1.06548 -0.73889,-1.9787 -1.35172,-1.98874 -0.22811,-0.004 -0.41474,-0.0975 -0.41474,-0.20843 0,-0.1109 -0.1942,-0.25786 -0.43155,-0.32659 -0.23735,-0.0687 -0.76624,-0.42346 -1.1753,-0.78831 -0.62447,-0.55698 -0.72042,-0.77331 -0.59833,-1.34898 0.08,-0.37709 0.28893,-0.76343 0.46433,-0.85852 0.1754,-0.0951 0.31891,-0.314 0.31891,-0.48645 0,-0.17246 0.14059,-0.31356 0.31243,-0.31356 0.17184,0 0.69687,-0.3162 1.16673,-0.70266 0.66246,-0.54487 0.89018,-0.92809 1.01413,-1.70655 0.18448,-1.15862 -0.3481,-2.46214 -1.09422,-2.67817 -0.24811,-0.0718 -0.45111,-0.20955 -0.45111,-0.30602 0,-0.0965 -0.3466,-0.29432 -0.77022,-0.43966 -1.3913,-0.47733 -1.83669,-0.72212 -1.83669,-1.00946 0,-0.28976 1.63114,-1.15561 2.18273,-1.15866 0.16813,-8.6e-4 0.43531,-0.25644 0.59375,-0.5678 0.36204,-0.71151 -0.0751,-2.18464 -0.70206,-2.36619 -0.22851,-0.0662 -0.41547,-0.19378 -0.41547,-0.2836 0,-0.2677 -2.12583,-1.15352 -2.47495,-1.0313 -0.18622,0.0652 -0.37276,-0.0634 -0.44191,-0.30463 -0.0775,-0.27042 -0.32597,-0.41746 -0.70539,-0.41746 -0.8651,0 -2.30254,-0.60661 -2.30254,-0.97169 0,-0.47934 0.99119,-0.60908 2.48782,-0.32563 1.37056,0.25957 1.98753,0.13716 1.23783,-0.2456 -0.22976,-0.1173 -0.35239,-0.30975 -0.27251,-0.42766 0.17092,-0.25229 -0.77382,-1.05625 -1.2412,-1.05625 -0.17735,0 -0.50763,-0.0859 -0.73396,-0.19098 -0.69732,-0.32361 -1.55786,-0.63295 -2.45733,-0.88335 -0.90063,-0.25071 -1.13265,-0.84129 -0.4426,-1.12655 0.93019,-0.38453 4.50283,-0.0731 4.50283,0.39255 0,0.36446 0.0663,0.36495 1.01483,0.008 0.94606,-0.35643 3.52926,-0.4653 4.11756,-0.17353 1.32005,0.65467 2.05228,0.70033 3.13933,0.19573 1.67898,-0.77937 1.93879,-1.02875 1.62107,-1.55596 -0.35737,-0.593 -0.23991,-1.3708 0.33671,-2.22971 0.36532,-0.54417 0.78101,-0.78684 1.8705,-1.09196 0.77043,-0.21576 1.69229,-0.60628 2.04856,-0.86781 0.35628,-0.26153 0.7362,-0.47551 0.84425,-0.47551 0.10806,0 0.17192,-0.43277 0.1419,-0.9617 -0.0753,-1.32784 -0.70054,-1.74323 -3.16665,-2.103924 -0.26069,-0.0381 -0.6149,-0.19094 -0.78715,-0.33957 -0.17224,-0.14864 -0.55563,-0.27026 -0.85198,-0.27026 -0.29635,0 -0.74198,-0.20574 -0.99029,-0.45721 -0.2483,-0.25147 -0.70008,-0.54394 -1.00395,-0.64994 -0.30388,-0.106 -0.50492,-0.31374 -0.44676,-0.46164 0.0582,-0.14791 0.01,-0.43919 -0.10757,-0.64728 -0.34847,-0.6181 0.72035,-0.47428 2.43821,0.32809 1.63817,0.76514 4.0021,1.27029 5.59317,1.19521 0.7185,-0.0339 1.19919,0.0873 1.70858,0.4309 0.98712,0.66579 1.86061,0.59928 3.71588,-0.28292 0.88019,-0.41854 1.68985,-0.67935 1.79924,-0.57956 0.10938,0.0998 0.0254,0.6125 -0.1867,1.13935 -0.21206,0.52685 -0.41859,1.181464 -0.45894,1.454694 -0.13104,0.88722 -0.53414,1.12303 -1.67574,0.98028 -0.64555,-0.0807 -1.04379,-0.0463 -1.04379,0.0902 0,0.27755 1.05393,0.91907 1.50992,0.91907 0.22496,0 0.2993,0.14768 0.21769,0.4324 -0.0913,0.31836 -0.007,0.43241 0.31842,0.43241 0.3582,0 0.44238,0.16475 0.44238,0.86582 0,0.77838 -0.0838,0.90135 -0.82947,1.21759 -0.45621,0.19347 -0.95644,0.44335 -1.11162,0.5553 -0.40402,0.29145 -0.10886,0.82053 0.45775,0.82053 0.26421,0 0.90196,0.11522 1.41721,0.25606 0.91881,0.25113 0.95297,0.24045 1.77551,-0.55492 0.76369,-0.73846 0.91885,-0.79861 1.73538,-0.67276 0.76083,0.11727 0.91936,0.0731 1.04621,-0.29151 0.0822,-0.23635 0.0803,-0.68122 -0.004,-0.98861 -0.13683,-0.49738 -0.0835,-0.55889 0.48417,-0.55889 0.40899,0 0.5998,-0.097 0.5317,-0.27026 -0.0584,-0.14864 -0.0154,-0.43171 0.0956,-0.62905 0.35652,-0.63379 -0.48002,-1.93558 -2.20766,-3.435464 -2.02253,-1.75588 -2.07554,-2.19385 -0.28968,-2.39324 0.65923,-0.0736 1.45765,-0.26004 1.77428,-0.41431 0.56767,-0.27659 1.95619,-1.50579 1.70095,-1.50579 -0.0722,0 0.12493,-0.19653 0.43815,-0.43674 0.31322,-0.24021 1.0494,-0.85669 1.63595,-1.36996 0.58655,-0.51326 1.69744,-1.31396 2.46864,-1.77932 l 1.40217,-0.84613 2.74517,0.0321 c 2.39055,0.028 3.02521,0.11874 4.91304,0.70266 1.19234,0.3688 2.34213,0.67054 2.5551,0.67054 0.21296,0 0.4486,0.14593 0.52362,0.3243 0.075,0.17837 0.23751,0.32431 0.36106,0.32431 0.69139,0 2.34763,0.9456 2.78372,1.58932 0.58047,0.85683 0.60685,1.0051 0.17888,1.0051 -0.28693,0 -1.70069,1.16147 -2.48194,2.03901 -0.17074,0.1918 -0.39292,0.30221 -0.49373,0.24538 -0.10081,-0.0568 -0.19323,0.014 -0.20539,0.1574 -0.0121,0.14341 -0.0961,0.61961 -0.18664,1.05823 -0.131,0.63494 -0.0621,0.916294 0.33809,1.380424 0.27645,0.32061 0.50263,0.69629 0.50263,0.83484 0,0.13855 0.13331,0.37349 0.29624,0.52209 0.16293,0.1486 0.31096,0.48425 0.32896,0.74591 0.018,0.26164 0.20463,1.03989 0.41473,1.72943 0.21011,0.68954 0.3898,2.00297 0.39932,2.91873 0.0292,2.81215 0.27574,3.84135 1.08323,4.52241 0.39247,0.33102 0.91619,0.70835 1.16383,0.83851 0.85393,0.44885 1.11516,2.88247 0.40179,3.74305 -0.7267,0.87665 -1.81952,1.79178 -2.36991,1.98457 -0.83673,0.29309 -2.42916,-0.47014 -2.42916,-1.16427 0,-0.18765 -0.32282,-0.66338 -0.71737,-1.05718 l -0.71737,-0.716 -0.72378,0.37835 c -0.39809,0.2081 -0.92844,0.37836 -1.17856,0.37836 -0.25013,0 -0.45478,0.10276 -0.45478,0.22836 0,0.1256 -0.4557,0.41226 -1.01268,0.63702 -0.55697,0.22476 -1.24947,0.6571 -1.53887,0.96075 -0.28941,0.30365 -0.63233,0.5521 -0.76205,0.5521 -0.3883,0 -1.20138,0.70442 -1.80903,1.56726 -0.46333,0.65792 -0.54179,0.97619 -0.41666,1.69008 0.0848,0.48374 0.29936,1.01198 0.47682,1.17387 0.17745,0.16189 0.32265,0.49588 0.32265,0.7422 0,0.29722 0.15277,0.44785 0.45423,0.44785 0.24983,0 0.48978,0.073 0.53323,0.16215 0.0435,0.0892 0.55891,0.44656 1.14546,0.79416 0.58655,0.34761 1.49013,0.88271 2.00794,1.18912 2.83134,1.67537 3.78792,3.48059 2.82515,5.33152 -0.40922,0.7867 -1.57912,1.56434 -2.61002,1.73488 -0.3506,0.058 -0.82724,0.19812 -1.0592,0.31136 -0.23196,0.11325 -0.83598,0.20591 -1.34227,0.20591 -1.56632,0 -3.36683,0.59734 -3.61814,1.20035 -0.12132,0.2911 -0.35653,0.53236 -0.52268,0.53614 -0.16616,0.004 -0.67537,0.35037 -1.13158,0.77021 -0.4562,0.41983 -1.17606,0.91428 -1.59969,1.09878 -0.53469,0.23286 -0.77022,0.48547 -0.77022,0.82609 0,0.53809 0.52097,0.74936 1.86012,0.75434 1.62625,0.006 3.27103,1.16714 2.49049,1.75811 -0.20239,0.15323 -0.59706,0.3105 -0.87703,0.34948 -0.57746,0.0804 -1.39044,0.70599 -0.91746,0.70599 0.15828,0 0.28778,0.18803 0.28778,0.41784 0,0.22981 0.21266,0.47941 0.47258,0.55467 0.84852,0.24568 1.21685,0.73354 0.92694,1.22774 -0.14216,0.24233 -0.16861,0.51878 -0.0588,0.61434 0.10983,0.0956 1.05287,0.24098 2.09563,0.32317 1.75019,0.13794 1.85949,0.12333 1.42194,-0.19008 -0.26069,-0.18672 -0.61915,-0.34259 -0.79659,-0.34637 -0.24157,-0.005 -0.28235,-0.20267 -0.16234,-0.78629 0.12251,-0.59575 0.0868,-0.75558 -0.15137,-0.67827 -0.5869,0.19047 -1.61237,-0.4596 -1.56412,-0.99153 0.0364,-0.40131 0.19987,-0.50466 0.86257,-0.54537 0.80685,-0.0496 2.24949,0.42908 2.52675,0.83834 0.0784,0.11573 0.7631,0.21042 1.52156,0.21042 0.75846,0 1.73864,0.13157 2.17818,0.29238 0.43954,0.16081 1.01246,0.37084 1.27315,0.46673 0.26069,0.0959 0.55397,0.1589 0.65172,0.14002 0.0978,-0.0189 0.17775,0.0687 0.17775,0.19464 0,0.12593 0.10196,0.17148 0.22658,0.10121 0.12462,-0.0703 0.40485,0.12046 0.62274,0.42383 0.44407,0.61829 0.3316,2.00787 -0.18614,2.29978 -0.33012,0.18612 -2.85289,0.11581 -4.96819,-0.13847 l -1.34262,-0.16139 -0.96805,0.92835 c -0.70524,0.67634 -0.96804,1.11011 -0.96804,1.59787 0,0.92122 -0.65068,1.26904 -1.89636,1.01371 -0.52267,-0.10714 -1.00639,-0.11202 -1.07492,-0.0108 -0.0685,0.10116 -0.10526,0.77254 -0.0816,1.49194 0.0314,0.95412 -0.0628,1.41465 -0.34798,1.70216 -0.21505,0.21679 -0.391,0.59349 -0.391,0.83711 0,0.24363 -0.15997,0.56408 -0.35549,0.71211 -0.19552,0.14803 -0.35549,0.35379 -0.35549,0.45723 0,0.19889 -0.85158,1.17017 -1.37968,1.57361 -0.17228,0.1316 -0.51888,0.40954 -0.77022,0.61764 -0.25135,0.20809 -0.57351,0.37835 -0.71592,0.37835 -0.47439,0 0.0683,3.23107 0.78391,4.6673 0.33304,0.6684 0.13303,1.62309 -0.40649,1.94031 -0.36271,0.21327 -0.53607,0.21902 -0.73842,0.0245 z m 2.95272,-15.36036 c 0.5181,-0.26215 0.52889,-0.30516 0.16081,-0.64094 -0.217,-0.19797 -0.28028,-0.35994 -0.14063,-0.35994 0.13966,0 0.25392,-0.0949 0.25392,-0.21086 0,-0.12762 -0.21048,-0.14011 -0.53323,-0.0316 -1.28483,0.43177 -1.82908,0.47601 -1.68651,0.13708 0.12317,-0.29283 -0.14341,-0.43036 -0.6834,-0.35258 -0.0978,0.0141 -0.17774,-0.0738 -0.17774,-0.19524 0,-0.12146 -0.29328,-0.33485 -0.65173,-0.47421 -0.35844,-0.13935 -0.81169,-0.37307 -1.00721,-0.51937 -0.19552,-0.14631 -0.88811,-0.32288 -1.5391,-0.3924 l -1.18361,-0.12638 0.82813,0.50582 c 0.45547,0.2782 1.38433,0.74114 2.06414,1.02875 0.67981,0.28761 1.30021,0.69319 1.37867,0.90129 0.084,0.22276 0.38279,0.37835 0.72659,0.37835 0.32118,0 0.64534,0.14594 0.72036,0.32431 0.16583,0.39423 0.72564,0.40488 1.47054,0.028 z M 133.80342,112.8878 c -0.22458,-0.95526 -0.29013,-1.02696 -0.93892,-1.02696 -0.74043,0 -0.82837,0.18941 -0.4517,0.97291 0.17151,0.35674 0.31664,0.55618 0.32252,0.44322 0.006,-0.11297 0.13866,-0.0887 0.29507,0.054 0.57216,0.52197 0.94914,0.30583 0.77303,-0.44322 z m 19.1024,-7.52064 c 0.37456,-0.18287 0.45841,-0.45969 0.45841,-1.51341 0,-1.24217 -0.36105,-1.80332 -0.51675,-0.80316 -0.0486,0.3125 -0.26628,0.51115 -0.60857,0.5555 -0.73005,0.0946 -0.96525,0.99792 -0.40648,1.56119 0.48965,0.4936 0.47673,0.49119 1.07339,0.19988 z m 0.13355,-4.04619 c -0.23317,-1.43157 -0.4301,-1.98037 -0.81222,-2.263534 -0.32185,-0.23849 -0.34944,-0.21816 -0.19916,0.146734 0.096,0.23297 0.35587,0.98684 0.5776,1.67527 0.46454,1.44229 0.62307,1.60365 0.43378,0.44153 z m -0.97859,-3.297094 c -0.11467,-0.16925 -0.25099,-0.18181 -0.40899,-0.0377 -0.13034,0.11892 -0.15959,0.33045 -0.065,0.47008 0.11466,0.16926 0.25099,0.18181 0.40899,0.0377 0.13034,-0.11891 0.15959,-0.33045 0.065,-0.47008 z M 64.01857,161.04688 c -0.325863,-0.16994 -0.493904,-0.31243 -0.373425,-0.31664 0.30141,-0.0106 -0.831689,-1.08776 -1.149079,-1.09241 -0.140211,-0.002 -0.481402,-0.22189 -0.758203,-0.48853 -1.171061,-1.12808 -2.399473,-1.46014 -7.791413,-2.10619 -2.818031,-0.33765 -4.523834,-0.71451 -5.013922,-1.10773 -0.24028,-0.19278 -0.653754,-0.41054 -0.918826,-0.48391 -0.265074,-0.0734 -0.68038,-0.44972 -0.922902,-0.83633 -0.24252,-0.38662 -0.62054,-0.89752 -0.840041,-1.13534 -0.597997,-0.64791 -1.032921,-3.1004 -0.831123,-4.6866 0.161464,-1.26915 0.353491,-1.78069 0.95956,-2.55618 0.778817,-0.99654 0.978735,-2.07778 0.782279,-4.23088 -0.107748,-1.1809 -0.129968,-3.62241 -0.04938,-5.42558 0.138009,-3.0879 0.113599,-3.36425 -0.419913,-4.75387 -0.311543,-0.81147 -0.762419,-1.65534 -1.001948,-1.87527 -0.660973,-0.60691 -1.914103,-1.01059 -3.137103,-1.01059 -0.963167,0 -1.075323,0.0469 -0.904943,0.37835 0.418201,0.81359 0.06408,4.26055 -0.489602,4.76566 -0.247744,0.22601 -1.897822,-1.8741 -2.555314,-3.25224 -0.156011,-0.32701 -0.366921,-0.59456 -0.46869,-0.59456 -0.101769,0 -0.185033,-0.15077 -0.185033,-0.33504 0,-0.18427 -0.146342,-0.59776 -0.325201,-0.91886 -0.511757,-0.91873 -0.166349,-1.45779 0.881329,-1.37545 0.4762,0.0374 0.865818,-0.0172 0.865818,-0.12147 0,-0.33682 -0.522477,-0.67787 -0.858348,-0.56029 -0.193982,0.0679 -0.326607,-0.0267 -0.326607,-0.23309 0,-0.1911 -0.08863,-0.34744 -0.196944,-0.34744 -0.108319,0 -0.34386,-0.26755 -0.523426,-0.59456 -0.671111,-1.22216 -0.739168,-1.21755 -1.467847,0.0995 -0.814276,1.47176 -1.298625,1.89673 -1.761945,1.54595 -0.17362,-0.13146 -0.31568,-0.35375 -0.31568,-0.49398 0,-0.36211 -1.77681,-3.62033 -1.90868,-3.50003 -0.0601,0.0548 -0.0994,-0.98751 -0.0875,-2.31622 0.0156,-1.74005 0.14869,-2.77871 0.47571,-3.71305 0.424,-1.21142 0.45403,-2.06219 0.45403,-12.86404 0,-9.792184 0.0621,-11.948304 0.40471,-14.053164 0.5179,-3.18167 1.13817,-10.8424 1.1368,-14.040142 -10e-4,-2.435466 0.38632,-4.98567 0.757322,-4.98567 0.104265,0 0.189574,-0.180092 0.189574,-0.400204 0,-0.220111 0.266616,-0.857653 0.592479,-1.416756 0.325863,-0.559102 0.592478,-1.15734 0.592478,-1.329414 0,-0.172075 0.106646,-0.312864 0.236991,-0.312864 0.130345,0 0.236991,-0.15524 0.236991,-0.344979 0,-0.189739 -0.594673,-1.936233 -0.349674,-2.251867 0.469804,-0.605252 1.66697,-0.796078 1.901081,-2.858857 0.07739,-0.681865 0.239885,-1.295677 0.361108,-1.364023 0.121221,-0.06835 0.223796,-0.337433 0.227941,-0.597966 0.0087,-0.54692 0.512706,-1.230403 0.907306,-1.230403 0.148562,0 0.270113,-0.150358 0.270113,-0.33413 0,-0.605075 2.382667,-2.475245 3.158316,-2.478981 0.812578,-0.0039 1.446908,-1.455074 1.501961,-3.436048 0.0256,-0.921409 0.210806,-1.998743 0.421937,-2.454472 0.411596,-0.88843 1.672834,-2.106488 2.181161,-2.106488 0.176186,0 0.320339,-0.08181 0.320339,-0.181798 0,-0.390863 2.545101,-0.641423 5.095308,-0.50162 2.619482,0.143602 5.683648,-0.04454 6.148963,-0.377539 0.272142,-0.194761 2.969577,-0.515744 3.923158,-0.466839 5.29633,0.271619 5.776835,0.258766 7.44837,-0.199224 0.921682,-0.252535 1.977705,-0.599657 2.346717,-0.771382 0.369011,-0.171725 0.864171,-0.312229 1.100352,-0.312229 0.236183,0 0.487713,-0.138583 0.558962,-0.307965 0.07125,-0.169379 0.486038,-0.462295 0.921758,-0.65092 0.43572,-0.188626 1.055375,-0.588352 1.37701,-0.888279 0.321635,-0.299928 0.798082,-0.712373 1.058772,-0.916546 1.314225,-1.029303 2.866713,-2.705827 2.900906,-3.132675 0.02121,-0.264872 0.310347,-0.695824 0.642509,-0.957669 0.332162,-0.261847 0.603929,-0.675334 0.603929,-0.91886 0,-0.243528 0.11294,-0.442776 0.250978,-0.442776 0.138038,0 0.177696,-0.108168 0.08813,-0.240374 -0.08956,-0.132207 -0.05657,-0.302467 0.07332,-0.378354 0.418303,-0.244393 1.518347,-2.684861 1.76509,-3.915885 0.13171,-0.657113 0.294305,-1.4623 0.361324,-1.789306 0.06702,-0.327006 0.228831,-0.594557 0.359584,-0.594557 0.130753,0 0.181919,-0.194716 0.113699,-0.432703 -0.06822,-0.237987 -0.0469,-0.389214 0.04737,-0.336061 0.190693,0.107518 1.109452,-1.191435 1.023692,-1.44731 -0.02989,-0.08918 0.02564,-0.137829 0.123397,-0.108101 0.09776,0.02973 0.400994,-0.140532 0.673858,-0.378355 1.087858,-0.948157 2.838478,-1.607674 5.428658,-2.045153 2.385839,-0.402964 3.260349,-0.613563 3.405979,-0.820222 0.0819,-0.116202 0.36218,-0.272804 0.62287,-0.348002 0.26069,-0.0752 0.87984,-0.477474 1.37589,-0.893948 0.49605,-0.416476 1.04368,-0.757228 1.216951,-0.757228 0.17327,0 0.48973,-0.243228 0.703247,-0.540506 0.21351,-0.297278 0.594867,-0.540506 0.847477,-0.540506 0.25261,0 0.65008,-0.18251 0.88326,-0.405578 0.23319,-0.223069 0.69059,-0.477804 1.01645,-0.566079 0.32586,-0.08827 0.75244,-0.283342 0.94796,-0.433482 0.19552,-0.150141 1.01599,-0.568756 1.82326,-0.930256 1.83901,-0.823512 3.38468,-0.950249 4.20904,-0.345119 0.58221,0.427366 0.58452,0.442095 0.18184,1.160542 -0.30477,0.543756 -0.65476,0.792653 -1.3847,0.984737 -1.12414,0.295814 -2.20424,0.952132 -2.21509,1.345994 -0.004,0.148639 -0.27406,0.270253 -0.59992,0.270253 -0.42607,0 -0.59248,0.116487 -0.59248,0.414722 0,0.592831 -0.25362,1.114838 -0.47972,0.987361 -0.10618,-0.05987 -0.3203,0.242873 -0.47581,0.672759 -0.41443,1.145579 0.002,4.437115 0.63448,5.014038 0.17658,0.161088 0.32105,0.430762 0.32105,0.599276 0,0.308939 0.4706,0.911183 1.25545,1.606644 0.38236,0.338815 0.41332,0.684762 0.30235,3.378668 -0.11335,2.751702 0.0513,5.516418 0.46347,7.781774 0.14446,0.793968 0.0897,0.949861 -0.51261,1.459366 -0.37089,0.313742 -0.81636,0.570439 -0.98994,0.570439 -0.3773,0 -1.02404,0.547952 -0.84236,0.713695 0.0703,0.06411 -0.15337,0.284613 -0.49698,0.490007 -0.81233,0.485574 -2.01779,2.852605 -2.26487,4.447298 -0.10671,0.688663 -0.28073,1.377184 -0.38672,1.530047 -0.10599,0.152864 -0.24794,0.761917 -0.31544,1.353451 -0.0961,0.842385 -0.24048,1.128888 -0.66604,1.321742 -0.722067,0.327238 -1.707695,1.568012 -1.547705,1.948371 0.07,0.166497 0.0247,0.302722 -0.10074,0.302722 -0.12545,0 -0.30973,0.656715 -0.40953,1.459366 -0.2109,1.696216 -0.20897,1.833813 0.0664,4.728634 0.16918,1.778279 0.30403,2.282119 0.719801,2.689248 0.2814,0.275543 0.511627,0.645243 0.511627,0.821552 0,0.176308 0.15657,0.478401 0.34795,0.671319 0.191357,0.192915 0.377987,0.68703 0.414717,1.098035 l 0.0668,0.74728 -1.303434,0.05257 c -2.011741,0.08114 -3.339661,0.280858 -3.203531,0.481813 0.21161,0.312359 2.58052,0.895454 3.203531,0.788538 0.32587,-0.05592 0.678757,-0.108908 0.784207,-0.117744 0.10545,-0.0088 0.11727,-0.125979 0.0263,-0.260316 -0.1003,-0.14806 -0.0358,-0.205362 0.163747,-0.145502 0.78542,0.235583 0.45245,2.157803 -0.603954,3.486693 -0.44236,0.556449 -0.45074,0.628319 -0.0945,0.810193 0.214997,0.109766 0.694144,0.637466 1.064784,1.172666 0.37063,0.535203 0.79771,0.973268 0.94906,0.97348 0.15134,2.14e-4 0.55714,0.306097 0.90178,0.679744 0.60373,0.65456 0.70614,0.682707 2.80571,0.771125 1.66738,0.07022 2.54893,-0.0049 3.75396,-0.31974 1.89698,-0.495676 4.58921,-0.600471 5.4164,-0.210836 0.41043,0.193326 0.67031,0.572115 0.8458,1.232776 0.21298,0.80185 0.37815,0.99205 1.03733,1.19452 0.4312,0.13245 0.97051,0.45094 1.19845,0.70774 0.22795,0.25681 0.46278,0.42283 0.52185,0.36894 0.0591,-0.0539 0.13033,0.41913 0.15836,1.05116 0.0453,1.02082 -0.0116,1.17514 -0.50923,1.38199 -0.50452,0.20971 -0.56466,0.38416 -0.60503,1.75521 -0.0565,1.91846 -0.62499,3.15654 -1.9027,4.1437 -0.53869,0.41619 -0.97998,0.86641 -0.98063,1.00049 -7.1e-4,0.13408 -0.16337,0.36657 -0.3616,0.51665 -0.19823,0.15008 -0.47717,0.69589 -0.61987,1.2129 -0.1427,0.51702 -0.34145,0.8938 -0.44167,0.8373 -0.20029,-0.11293 -0.70702,1.5193 -0.71771,2.31181 -0.004,0.27435 -0.41025,0.91231 -0.90345,1.41768 -0.71391,0.73151 -1.05683,0.91886 -1.68195,0.91886 h -0.78519 l 0.10526,-1.82963 c 0.0826,-1.43509 0.0337,-1.85468 -0.22665,-1.94582 -0.68501,-0.2398 -0.98865,-0.0915 -1.64299,0.80267 -0.5466,0.7469 -0.65582,1.10093 -0.58359,1.89177 0.14171,1.55164 0.13307,2.230674 -0.0361,2.838844 -0.41485,1.49134 -2.20526,0.41267 -2.4505,-1.476354 -0.0912,-0.70279 -0.047,-1.14095 0.12498,-1.23792 0.388,-0.21876 0.32549,-0.70616 -0.11012,-0.85866 -0.20699,-0.0725 -0.97404,0.0268 -1.70456,0.22051 l -1.32822,0.35225 -0.54687,-0.58 c -0.705384,-0.74814 -0.693584,-1.43576 0.0354,-2.06051 0.45538,-0.39028 0.74466,-0.46935 1.32785,-0.36295 1.58791,0.28973 2.8776,-2.19538 1.66072,-3.20004 -0.63175,-0.52157 -1.72756,-0.27141 -2.56066,0.58458 -0.36006,0.36994 -1.054557,1.03219 -1.543344,1.47165 -0.488801,0.43947 -0.888721,0.89256 -0.888721,1.00689 0,0.11432 -0.21329,0.38395 -0.47398,0.59918 -0.26069,0.21522 -0.47399,0.52218 -0.47399,0.68211 0,0.15994 -0.12442,0.2908 -0.27649,0.2908 -0.15207,0 -0.20516,0.0651 -0.11798,0.14461 0.0872,0.0795 0.007,0.29843 -0.17903,0.48645 -0.64666,0.65492 -0.69538,1.44278 -0.11949,1.93225 0.5133,0.43626 0.52129,0.50626 0.25563,2.240594 -0.36671,2.39416 -0.34651,5.50032 0.0435,6.68245 0.1744,0.52863 0.24107,1.15216 0.14816,1.38562 -0.0929,0.23347 -0.12266,0.49745 -0.0661,0.58664 0.0566,0.0892 -0.0634,0.17431 -0.26665,0.18917 -0.20321,0.0149 -0.48472,0.0392 -0.62557,0.0541 -0.38869,0.041 -0.91203,0.78838 -0.77694,1.10954 0.0657,0.15608 -0.0496,0.58182 -0.25606,0.9461 -0.34108,0.60171 -0.4294,0.63989 -0.96512,0.41721 -0.32432,-0.13481 -0.589669,-0.36408 -0.589669,-0.50949 0,-0.14541 -0.23996,-0.32305 -0.53323,-0.39475 -0.81454,-0.19913 -0.88872,-0.17189 -0.88872,0.32636 0,0.50547 -0.61024,1.03305 -1.20747,1.04392 -0.571438,0.0104 -1.247888,-0.77536 -1.05739,-1.22824 0.08939,-0.21252 0.128989,-0.43245 0.08799,-0.48873 -0.160299,-0.22003 -1.252958,0.0568 -1.871869,0.47423 -0.54271,0.36604 -0.770655,0.4018 -1.362254,0.21365 -0.681889,-0.21685 -0.987766,-0.15815 -0.987766,0.18955 0,0.3925 1.69651,1.07255 2.875033,1.15246 0.699771,0.0474 1.565587,0.19017 1.924036,0.31716 0.57026,0.20204 0.65154,0.34643 0.65027,1.15511 -7.2e-4,0.50832 -0.16078,1.20288 -0.35549,1.54348 -0.19472,0.3406 -0.35403,0.70951 -0.35403,0.8198 0,0.11029 -0.21329,0.40939 -0.47398,0.66466 -0.625301,0.61231 -0.597903,0.815 0.110158,0.815 0.751382,0 1.093192,0.59387 0.915802,1.59112 -0.0919,0.51662 -0.0479,0.78711 0.12799,0.78711 0.1474,0 0.268,0.14594 0.268,0.3243 0,0.17837 0.098,0.32431 0.21778,0.32431 0.41258,0 1.7635,-0.75805 2.445649,-1.37235 0.37601,-0.33861 0.83018,-0.63527 1.00926,-0.65924 0.17908,-0.024 0.61363,-0.30637 0.96567,-0.62753 0.35204,-0.32115 0.7855,-0.58392 0.96324,-0.58392 0.17775,0 0.32317,-0.0973 0.32317,-0.2162 0,-0.11891 0.15997,-0.2162 0.35549,-0.2162 0.19552,0 0.35549,-0.0973 0.35549,-0.21621 0,-0.11891 0.26032,-0.2162 0.57849,-0.2162 0.31817,0 0.640081,-0.0909 0.715351,-0.20202 0.0753,-0.11111 0.742157,-0.36255 1.481954,-0.55876 1.36316,-0.36151 3.2284,-0.29532 3.51292,0.12467 0.26299,0.38819 0.58402,0.20116 0.58402,-0.34023 0,-0.47123 0.095,-0.53734 0.71097,-0.49452 0.39104,0.0272 0.71098,0.13176 0.71098,0.23239 0,0.10064 0.10664,0.12285 0.23699,0.0494 0.13034,-0.0735 0.23699,-0.0306 0.23699,0.0953 0,0.12593 0.16101,0.22896 0.3578,0.22896 0.1968,0 0.54044,0.19458 0.76365,0.43241 0.22321,0.23782 0.51544,0.43256 0.6494,0.43276 0.13397,1.9e-4 0.65353,0.39783 1.15461,0.88364 0.89713,0.86981 0.90906,0.90361 0.7822,2.21571 -0.0709,0.73284 -0.13423,1.39846 -0.14081,1.47915 -0.007,0.0807 -0.16771,0.28878 -0.35805,0.46242 -0.3237,0.29531 -0.69513,1.44479 -0.46685,1.44479 0.057,0 0.50162,-0.19458 0.98802,-0.4324 0.48639,-0.23783 1.01313,-0.43241 1.17055,-0.43241 0.15741,0 0.67493,-0.20923 1.15003,-0.46496 0.75514,-0.40646 0.84135,-0.53566 0.68525,-1.02696 -0.0982,-0.3091 -0.19614,-1.56882 -0.21763,-2.79938 -0.0329,-1.88483 0.029,-2.31067 0.39317,-2.70253 l 0.43223,-0.46515 0.65331,0.6666 c 0.35932,0.36662 0.81328,0.88932 1.0088,1.16155 0.19552,0.27223 0.50432,0.63619 0.68624,0.80881 0.8677,0.82338 1.83135,3.64862 1.64697,4.82863 -0.0675,0.4321 -0.2634,0.55167 -1.12174,0.68469 -1.18625,0.18383 -1.44997,0.33783 -1.00662,0.58779 0.17029,0.096 0.31992,0.26099 0.33252,0.3666 0.0126,0.10562 0.32343,0.4326 0.69073,0.72663 0.3673,0.29403 0.66783,0.65545 0.66783,0.80316 0,0.1477 0.21329,0.37268 0.47398,0.49996 0.26069,0.12728 0.47398,0.373 0.47398,0.54605 0,0.45755 1.00263,2.48079 1.22937,2.48079 0.10591,0 0.19258,0.14593 0.19258,0.3243 0,0.17837 0.15621,0.3243 0.34715,0.3243 0.7717,0 1.10407,1.45582 0.46539,2.03848 -0.46084,0.42041 -0.81254,0.43711 -0.81254,0.0386 0,-0.16565 -0.13975,-0.35009 -0.31054,-0.40989 -0.24582,-0.0861 -0.31158,0.46115 -0.31554,2.62535 -0.007,3.61445 -0.86226,6.95001 -1.78286,6.95001 -0.24622,0 -0.45502,0.23977 -0.5491,0.63054 -0.0835,0.3468 -0.30526,0.68427 -0.49282,0.74993 -0.19003,0.0665 -0.341,0.40171 -0.341,0.75708 0,0.85755 -0.21809,1.32169 -0.62105,1.32169 -0.18334,0 -0.51853,0.0873 -0.74486,0.19397 -0.22634,0.10668 -0.67814,0.29097 -1.004,0.40953 -0.56073,0.20402 -0.56708,0.2243 -0.1185,0.37846 0.26069,0.0896 0.84725,0.31153 1.30345,0.4932 0.81645,0.32512 1.78664,0.51509 1.55598,0.30466 -0.0649,-0.0592 0.14504,-0.29634 0.46648,-0.52701 0.32145,-0.23066 0.58445,-0.60691 0.58445,-0.8361 0,-0.22919 0.0888,-0.41671 0.19736,-0.41671 0.10855,0 0.31496,-0.51078 0.45868,-1.13507 0.45322,-1.96862 0.86781,-3.07231 1.4032,-3.73547 0.48897,-0.60568 0.54229,-0.6215 0.92756,-0.27516 0.2605,0.23418 0.39697,0.6655 0.37623,1.18911 -0.0541,1.36608 -0.57045,3.95659 -0.78865,3.95659 -0.11246,0 -0.20447,0.29187 -0.20447,0.6486 0,0.35674 -0.0965,0.64861 -0.21448,0.64861 -0.55978,0 -2.82075,4.44044 -3.3576,6.59417 -0.68384,2.74341 -1.36359,3.1343 -2.56736,1.47635 -0.40332,-0.55549 -0.7333,-1.09994 -0.7333,-1.20989 0,-0.65442 0.81622,-2.57705 1.2935,-3.04686 0.37289,-0.36707 0.51843,-0.70896 0.43125,-1.01309 -0.19916,-0.69477 -0.7759,-0.7786 -1.27935,-0.18595 -0.37304,0.43913 -0.47758,0.46996 -0.67073,0.19779 -0.12584,-0.17733 -0.36658,-0.33128 -0.53497,-0.34213 -1.21355,-0.0781 -1.81824,-0.3966 -2.19313,-1.15502 -0.37045,-0.74946 -0.3704,-0.86068 9.5e-4,-1.70714 0.21832,-0.49799 0.49839,-0.90544 0.62227,-0.90544 0.12389,0 0.15666,-0.10125 0.0728,-0.225 -0.0838,-0.12375 -0.37022,-0.16194 -0.6364,-0.0849 -0.26619,0.0771 -1.14672,0.13106 -1.95673,0.11997 -2.36127,-0.0323 -3.79337,-0.7499 -5.59007,-2.80102 -0.49949,-0.57021 -0.95263,-0.4684 -0.76884,0.17274 0.29306,1.02238 -1.20021,1.28755 -2.156137,0.38289 -0.359917,-0.34062 -0.648617,-0.40053 -1.448268,-0.30054 -0.6557,0.082 -1.14797,0.0253 -1.43323,-0.16496 -0.40522,-0.27031 -0.40866,-0.32581 -0.051,-0.8238 0.21092,-0.29367 0.85443,-0.90024 1.43002,-1.34792 1.135951,-0.88351 1.214561,-1.30719 0.42069,-2.26733 -0.35825,-0.43329 -0.68292,-0.5346 -1.93792,-0.60472 -1.3086,-0.0731 -2.91168,-0.53253 -3.285019,-0.94144 -0.0652,-0.0714 -0.35862,-0.24515 -0.65211,-0.38615 -0.8314,-0.39943 -1.24381,-1.59041 -1.24381,-3.59191 0,-2.30025 -0.43539,-3.35113 -1.3884,-3.35113 -0.770259,0 -1.591094,-0.69517 -1.324171,-1.12144 0.09777,-0.15613 0.346094,-0.46226 0.551838,-0.68029 0.475115,-0.50347 0.361319,-1.64448 -0.213093,-2.13665 -0.238173,-0.20408 -0.498518,-0.55924 -0.578545,-0.78927 -0.08003,-0.23002 -0.401823,-0.47691 -0.715101,-0.54864 -0.461683,-0.10571 -0.600095,-0.31594 -0.730554,-1.10959 -0.08853,-0.53854 -0.09519,-1.27915 -0.01481,-1.64581 0.134315,-0.61265 0.103001,-0.65509 -0.386662,-0.52405 -0.994756,0.26622 -2.423398,0.28348 -4.376946,0.0529 -1.071512,-0.1265 -2.031326,-0.14895 -2.132919,-0.0499 -0.101594,0.0991 -0.0255,0.2314 0.1691,0.29412 0.194598,0.0627 0.699282,0.43856 1.12152,0.83521 0.42224,0.39665 0.849577,0.72167 0.949637,0.72226 0.100063,6.5e-4 0.476312,0.21949 0.836109,0.48645 l 0.654179,0.48538 -0.561382,1.24925 c -0.681113,1.5157 -2.638867,3.3991 -3.533286,3.3991 -0.324753,0 -1.04386,0.14594 -1.598016,0.32431 -0.554157,0.17837 -1.660687,0.32579 -2.458956,0.32761 -1.582979,0.004 -1.509334,0.23909 0.207541,0.66361 1.259534,0.31143 3.118816,1.40691 3.267355,1.9251 0.155405,0.54214 -0.180478,0.88877 -1.54917,1.59874 -1.084993,0.5628 -1.125708,0.61961 -1.125708,1.57056 0,1.94783 1.20159,5.15214 2.222711,5.92735 0.28825,0.21884 0.482594,0.71443 0.551092,1.40532 0.09443,0.95238 0.0298,1.1419 -0.600336,1.76061 -0.75791,0.74416 -1.206956,0.90028 -2.906241,1.0104 -1.024097,0.0664 -2.585101,0.82458 -2.585101,1.25565 0,0.0966 -0.273371,0.17554 -0.607493,0.17554 -0.541842,0 -0.599467,0.0754 -0.53323,0.69773 0.05089,0.47813 0.251452,0.77786 0.637233,0.95232 1.025361,0.46371 1.599643,1.19833 1.493236,1.91016 -0.155701,1.04157 -0.852741,1.56321 -2.310935,1.72942 -1.038066,0.11832 -1.285712,0.22403 -1.285712,0.54882 0,0.22126 0.211896,0.46364 0.470882,0.53862 0.699413,0.20252 2.628845,-0.11663 2.772701,-0.45863 0.181592,-0.43171 1.266627,-0.36146 2.088716,0.13523 0.391035,0.23625 0.911986,0.4302 1.157668,0.43098 0.380112,0.001 0.353709,-0.0653 -0.177135,-0.44623 -0.468737,-0.33637 -0.570871,-0.53793 -0.410816,-0.81076 0.117156,-0.19971 0.196866,-0.45666 0.177134,-0.57102 -0.01974,-0.11435 0.28406,-0.35758 0.675095,-0.5405 0.391035,-0.18293 0.746522,-0.40556 0.789969,-0.49475 0.279669,-0.57405 4.162156,0.19077 4.837595,0.95297 0.47875,0.54025 2.654252,2.26546 2.436713,1.93236 -0.134239,-0.20555 -0.109911,-0.25382 0.0753,-0.14939 0.150485,0.0848 0.274336,0.31878 0.275227,0.51986 9.48e-4,0.20107 0.374152,0.59704 0.829469,0.87992 0.455317,0.28287 0.82785,0.65077 0.82785,0.81754 0,0.16677 0.159969,0.35922 0.355487,0.42767 0.195517,0.0684 0.355486,0.21217 0.355486,0.31939 0,0.10721 0.28984,0.4917 0.644087,0.85441 0.715818,0.73291 1.346773,2.56461 0.996643,2.89332 -0.12033,0.11296 -0.218783,0.37396 -0.218783,0.57998 0,0.20603 -0.213292,0.43635 -0.473982,0.51184 -0.260691,0.0755 -0.473983,0.22797 -0.473983,0.33887 0,0.1109 -0.200267,0.20163 -0.44504,0.20163 -0.244772,0 -0.827898,0.14594 -1.295839,0.32431 -1.140425,0.4347 -1.739657,0.40844 -2.214068,-0.097 -0.217491,-0.23173 -0.499541,-0.36263 -0.626775,-0.2909 -0.127233,0.0717 -0.159651,0.0246 -0.07204,-0.1047 0.08876,-0.13101 -0.157379,-0.40578 -0.55586,-0.62052 -0.393335,-0.21197 -0.715154,-0.46171 -0.715154,-0.55499 0,-0.0933 -0.159969,-0.16958 -0.355487,-0.16958 -0.195517,0 -0.355486,-0.0916 -0.355486,-0.20348 0,-0.24068 -1.841907,-0.61786 -2.405924,-0.49268 -0.592146,0.13143 -0.367369,1.1314 0.363494,1.61709 0.707184,0.46996 0.783569,0.84847 0.252386,1.25064 -0.292804,0.22169 -0.668502,0.22778 -1.83668,0.0298 -1.610708,-0.27301 -2.165592,-0.70858 -1.941625,-1.52412 0.181485,-0.66085 -0.462664,-1.32584 -1.284298,-1.32584 -0.560811,0 -1.910757,0.88034 -1.919724,1.25191 -0.0088,0.36578 -1.83033,2.01343 -2.254608,2.03941 -0.256898,0.0157 -0.880905,-0.0977 -1.38668,-0.2521 -0.899336,-0.27453 -0.932341,-0.26585 -1.498371,0.39395 -0.53847,0.62769 -0.680742,0.67414 -2.042796,0.66701 -0.819423,-0.004 -1.724881,-0.1437 -2.056495,-0.31664 z m 18.09253,-7.40493 c -0.101325,-0.34411 -3.024266,-1.78367 -3.621638,-1.78367 -0.138286,0 -0.251428,-0.0973 -0.251428,-0.2162 0,-0.11891 -0.110398,-0.2162 -0.245329,-0.2162 -0.166332,0 -0.163647,0.13923 0.0083,0.4324 0.139517,0.23782 0.383222,0.43263 0.541568,0.43291 0.158345,2.2e-4 0.661162,0.29455 1.11737,0.65393 0.456208,0.35938 1.096083,0.70819 1.421946,0.77511 0.511062,0.10497 0.975669,0.22412 1.103521,0.28301 0.02038,0.009 -0.01308,-0.1532 -0.07435,-0.36129 z M 43.163355,119.01686 c 0,-0.11462 0.186816,-0.2625 0.415147,-0.32861 0.528232,-0.15295 1.078843,-1.49061 1.074932,-2.61146 -0.0032,-0.91517 -0.921039,-3.13494 -1.296258,-3.13494 -0.121986,0 -0.167704,-0.0798 -0.101593,-0.17742 0.06611,-0.0976 -0.08606,-0.48685 -0.338165,-0.86503 -0.389528,-0.58434 -0.429245,-0.88184 -0.264473,-1.98099 0.178348,-1.18972 0.150246,-1.33079 -0.350611,-1.76005 -0.299479,-0.25667 -0.867892,-0.4772 -1.263146,-0.49007 -0.395254,-0.0129 -0.718889,-0.0964 -0.719185,-0.18555 -2.37e-4,-0.0892 -0.460007,-0.16215 -1.021578,-0.16215 h -1.021039 l -0.05696,3.47987 c -0.04447,2.71681 0.02601,3.70774 0.321414,4.5191 0.335274,0.92088 0.559716,1.25918 1.536236,2.31557 0.132762,0.14362 0.241385,0.33455 0.241385,0.42428 0,0.0897 0.279725,0.36664 0.621613,0.61534 0.642239,0.46718 2.222279,0.71042 2.222279,0.34211 z m -3.484396,-14.6495 c -0.06489,-0.37571 -0.293917,-0.74062 -0.508958,-0.8109 -0.215038,-0.0703 -0.540564,-0.18943 -0.723389,-0.26477 -0.475039,-0.19575 -0.176942,1.35342 0.365685,1.90042 0.556471,0.56096 1.028413,0.11184 0.866662,-0.82475 z M 52.858471,82.370096 c 0.739088,-0.71771 1.016727,-1.97159 0.674835,-3.04772 -0.151115,-0.47565 -0.33344,-0.91346 -0.405165,-0.972916 -0.07173,-0.05946 -0.274436,-0.36349 -0.450466,-0.675632 -0.396543,-0.703166 -0.133151,-1.230957 1.011924,-2.027737 0.441782,-0.307405 0.866216,-0.787819 0.943184,-1.067585 0.154573,-0.561839 1.695067,-1.524921 2.314308,-1.446852 0.604889,0.07626 0.659949,-0.225809 0.18655,-1.023457 l -0.432125,-0.728101 -0.365355,0.797712 c -0.200945,0.438741 -0.467877,0.739907 -0.593184,0.669256 -0.125307,-0.07065 -0.434694,0.07411 -0.687528,0.321692 -0.842043,0.824544 -4.30838,0.790105 -4.30838,-0.04281 0,-0.09778 -0.297362,-0.446185 -0.660807,-0.774225 -2.059542,-1.858923 -1.924955,-3.688432 0.313488,-4.261383 1.528986,-0.391359 1.309315,-0.767203 -0.448414,-0.767203 -1.44136,0 -2.20131,0.253067 -1.516406,0.504971 0.163744,0.06023 0.05979,0.117179 -0.231,0.126567 -0.67468,0.02178 -0.947419,0.902643 -0.572416,1.848727 0.149416,0.376953 0.271663,1.183723 0.271663,1.792821 0,0.89932 0.09899,1.170708 0.526715,1.444018 0.28969,0.185108 0.678432,0.336562 0.863865,0.336562 0.185434,0 0.80139,0.267551 1.36879,0.594557 0.863534,0.497672 1.03171,0.706331 1.032063,1.280497 2.37e-4,0.562771 -0.229165,0.864879 -1.278172,1.682459 -1.130516,0.881107 -1.39199,0.989461 -2.257695,0.935577 -0.925223,-0.05759 -0.986667,-0.103978 -1.116581,-0.843034 -0.138024,-0.785188 -1.185782,-2.136639 -1.656504,-2.136639 -0.490562,0 -3.483115,-3.959924 -3.748317,-4.863406 -0.145584,-0.495962 -0.375055,-1.144977 -0.509941,-1.442256 -0.245155,-0.540315 -0.806663,-4.083193 -1.628954,-4.329527 0.519933,-0.249323 -2.376567,-1.620048 -0.937778,0.72119 0,0 -0.397564,-0.678196 0.680481,1.341361 0,0 -0.01211,7.174024 0.235239,7.985903 0.139725,0.458622 1.188155,2.018127 1.695437,2.138045 0.388236,0.09178 1.015106,0.461316 1.393045,0.821195 0.377939,0.35988 0.88195,0.654328 1.120022,0.654328 0.238072,0 0.618042,0.08613 0.844378,0.191406 2.520964,1.172549 3.118703,1.373059 3.697942,1.240429 0.411234,-0.0942 0.623929,-0.28886 0.623929,-0.571144 0,-0.507299 0.889361,-0.602971 1.09351,-0.117633 0.07187,0.170857 0.281202,0.257957 0.465185,0.193547 0.183981,-0.0644 0.289179,-0.184019 0.233773,-0.265804 -0.05541,-0.08178 0.211822,-0.170426 0.59384,-0.196982 0.493144,-0.03428 0.694577,0.04926 0.694577,0.288068 0,0.493898 -0.836305,1.884878 -1.384375,2.302568 -0.666765,0.50814 -0.492588,1.08828 0.456196,1.51946 1.075393,0.48873 1.227638,0.47798 1.854624,-0.13087 z m 16.771187,-3.32989 c -0.494209,-0.498196 -0.522788,-1.970143 -0.04933,-2.541194 0.363854,-0.438861 0.455835,-1.378991 0.215086,-2.198341 -0.171904,-0.585038 -0.699181,-0.549074 -1.618123,0.110358 -0.367275,0.263557 -0.973327,0.479193 -1.346785,0.479193 -0.592783,0 -0.679013,-0.08041 -0.679013,-0.633164 0,-0.348241 0.159969,-0.7791 0.355487,-0.957467 0.195518,-0.178367 0.355487,-0.574482 0.355487,-0.880253 0,-0.305773 0.106646,-0.555949 0.236991,-0.555949 0.601855,0 0.0853,-2.009593 -0.624382,-2.42906 -0.372881,-0.220399 -0.346023,-2.297178 0.03988,-3.084101 0.1818,-0.370713 0.298999,-1.257898 0.273544,-2.0707 -0.03941,-1.258598 0.0319,-1.513522 0.620317,-2.217347 0.365668,-0.437389 0.588944,-0.907298 0.496172,-1.044241 -0.11428,-0.168687 -0.0096,-0.211033 0.32463,-0.131299 0.354856,0.08466 0.457912,0.03354 0.367189,-0.182144 -0.08361,-0.198772 0.0469,-0.299834 0.387206,-0.299834 0.282327,0 0.447413,-0.09729 0.366855,-0.216202 -0.08056,-0.118912 0.02609,-0.216203 0.236991,-0.216203 0.210903,0 0.318303,-0.09618 0.238669,-0.213727 -0.07964,-0.117549 0.0037,-0.161747 0.185161,-0.09822 0.181471,0.06353 0.930913,-0.08962 1.665424,-0.340329 0.749965,-0.255983 1.988701,-0.472391 2.825407,-0.4936 1.857103,-0.04708 2.780443,0.464642 3.267443,1.810826 0.180486,0.4989 0.375186,0.772284 0.43267,0.607522 0.142162,-0.407457 1.434656,-2.059284 2.202166,-2.814405 0.611046,-0.601179 0.671714,-0.613295 2.486601,-0.496626 2.029055,0.130435 3.878311,-0.199557 3.878311,-0.692072 0,-0.162913 -0.167415,-0.296206 -0.372033,-0.296206 -0.204621,0 -0.83318,-0.289445 -1.396804,-0.643211 l -1.024766,-0.643211 -0.887202,0.643211 c -0.48796,0.353766 -0.971564,0.643211 -1.074677,0.643211 -0.10311,0 -0.360719,0.158046 -0.572461,0.351216 -0.355321,0.324153 -0.426283,0.315822 -0.920919,-0.108101 -0.680667,-0.583361 -0.810204,-0.576393 -1.370773,0.07374 -0.607491,0.704554 -1.781952,0.977134 -4.229918,0.981717 -2.395812,0.0045 -4.233201,0.408309 -5.32987,1.171404 -0.986255,0.686267 -1.088623,0.687595 -1.773001,0.02301 -0.302358,-0.293614 -0.657364,-0.473164 -0.788901,-0.399 -0.136018,0.07669 -0.166114,0.02702 -0.06978,-0.115169 0.390488,-0.576399 -2.598825,-0.992892 -3.302494,-0.460126 -0.180263,0.136482 -0.433794,0.18836 -0.563402,0.115284 -0.129608,-0.07308 -0.639269,0.06448 -1.132577,0.30569 -0.493312,0.241206 -1.018759,0.438556 -1.16766,0.438556 -0.148902,0 -0.403492,0.145937 -0.565757,0.324304 -0.177191,0.194772 -0.695571,0.324303 -1.297863,0.324303 -0.741218,0 -1.169612,0.141005 -1.64213,0.540506 -0.602457,0.509362 -1.115898,0.643557 -2.105623,0.550337 -0.233358,-0.02198 -0.899895,0.170077 -1.481194,0.426794 -0.876189,0.386948 -1.056904,0.569836 -1.056904,1.069605 0,0.331566 0.133307,0.701172 0.296239,0.821344 0.354993,0.261834 1.942606,0.188637 2.826943,-0.130335 0.622265,-0.224444 2.247431,-1.688208 2.169617,-1.954145 -0.02173,-0.07425 0.269118,-0.134993 0.646315,-0.134993 0.53101,0 0.779675,0.159004 1.101649,0.704429 0.39772,0.67374 0.396891,0.753082 -0.01903,1.821405 -0.500549,1.285699 -0.912759,1.741026 -1.416514,1.564674 -0.599884,-0.210004 -1.288748,0.624124 -1.196492,1.448805 0.138317,1.236448 0.264901,1.597541 0.540316,1.541315 0.145616,-0.02973 0.264757,0.183435 0.264757,0.473695 0,0.725249 0.314136,0.838303 0.987221,0.355298 0.312923,-0.224554 0.832026,-0.442181 1.153564,-0.483614 0.603813,-0.07781 0.611077,-0.114561 0.303661,-1.536473 -0.167574,-0.775115 0.275528,-1.241183 1.180028,-1.241183 1.021067,0 1.589334,0.547896 1.589334,1.532356 0,0.770775 0.311072,1.087846 1.025432,1.045205 0.302028,-0.01803 1.343537,1.165376 1.346796,1.530284 0.0017,0.178367 0.06148,0.664823 0.133073,1.081012 0.112606,0.654592 -0.01533,0.931768 -0.948083,2.053923 -0.593039,0.713468 -1.079376,1.474472 -1.080745,1.69112 -0.0014,0.216647 -0.25865,0.800394 -0.571734,1.297214 -0.762972,1.210731 -0.969261,2.167431 -0.537792,2.494106 0.592257,0.448413 1.075112,0.05247 1.238283,-1.01539 0.0847,-0.554297 0.424804,-1.391321 0.755797,-1.860052 l 0.601806,-0.852237 0.541345,0.619357 c 0.392902,0.449524 0.822382,0.654304 1.566238,0.7468 l 1.024891,0.127443 -0.01488,1.024297 c -0.0082,0.563365 0.07179,1.0243 0.177744,1.0243 0.105949,0 0.192636,0.189065 0.192636,0.420146 0,0.521909 0.950542,1.177399 1.276348,0.880169 0.147598,-0.13465 0.08776,-0.35166 -0.168091,-0.60957 z m 22.827838,-7.409365 c 0,-0.102458 -0.15997,-0.130285 -0.35548,-0.06184 -0.19552,0.06845 -0.35549,0.208277 -0.35549,0.310733 0,0.102458 0.15997,0.130285 0.35549,0.06184 0.19551,-0.06845 0.35548,-0.208276 0.35548,-0.310733 z m 3.458029,-10.890226 c -0.71936,-0.289631 -1.65159,-0.210561 -1.42695,0.121033 0.0714,0.105392 0.57677,0.18372 1.12304,0.174062 l 0.99323,-0.01756 z m -2.858329,-1.552179 c -0.9884,-0.863979 -1.54766,-1.157528 -1.54766,-0.812352 0,0.326364 2.033259,1.966931 2.315349,1.868176 0.2096,-0.07337 -0.0461,-0.425112 -0.767689,-1.055824 z m -3.088105,-1.940845 c -0.26069,-0.182976 -0.44732,-0.42311 -0.414734,-0.533628 0.06862,-0.232742 -0.260769,-0.269336 -0.495641,-0.05507 -0.08795,0.08023 0.134232,0.322819 0.493731,0.539082 0.793419,0.477292 1.073479,0.510641 0.416644,0.04961 z m 18.885469,93.737459 c -0.28526,-0.24246 -0.51867,-0.38093 -0.51867,-0.30772 0,0.0732 -0.29302,-0.19055 -0.65115,-0.58613 -0.35814,-0.39559 -0.88713,-0.95731 -1.17553,-1.24827 -0.531,-0.53571 -1.15717,-1.69288 -0.98986,-1.82928 0.0501,-0.0409 0.3311,-0.1416 0.62438,-0.22384 0.37447,-0.10501 0.53323,-0.0607 0.53323,0.14869 0,0.47328 1.36998,1.28853 1.90498,1.13362 0.34043,-0.0986 0.68536,0.077 1.2783,0.65049 0.55435,0.53623 1.03122,0.79118 1.50269,0.80341 0.64385,0.0167 0.68055,0.0634 0.54163,0.68863 -0.12788,0.57558 -0.26549,0.68057 -0.97012,0.74019 -0.45161,0.0382 -0.92242,0.15981 -1.04624,0.27025 -0.32065,0.28596 -0.45013,0.2559 -1.03364,-0.24004 z m -3.54732,-40.1639 c -0.6094,-0.48216 -1.09968,-3.15608 -0.64221,-3.50245 0.15296,-0.11581 0.33976,-0.15432 0.41511,-0.0856 0.0754,0.0687 0.32372,-0.13498 0.55193,-0.45273 0.25564,-0.35593 0.32487,-0.63288 0.18034,-0.72141 -0.12903,-0.079 -0.48312,-0.61792 -0.78688,-1.19753 -0.72239,-1.37841 -0.49432,-2.15601 0.66224,-2.2579 0.76877,-0.0677 0.77757,-0.0583 0.62791,0.6694 -0.14882,0.72372 0.27897,1.45321 0.85219,1.45321 0.12103,0 0.22006,0.29188 0.22006,0.64861 0,0.44332 0.11694,0.64861 0.36947,0.64861 0.20321,0 0.30357,0.0973 0.22301,0.2162 -0.0806,0.11891 -0.0335,0.2162 0.10451,0.2162 0.36751,0 0.30626,0.58685 -0.12373,1.18553 -0.20608,0.28693 -0.34725,0.84293 -0.3137,1.23555 0.0892,1.0435 -0.20455,1.64971 -0.97556,2.01344 -0.84278,0.39759 -0.77014,0.40127 -1.36469,-0.0691 z m 12.16242,-66.575405 c -0.33114,-0.325791 -0.60207,-0.470904 -0.60207,-0.322472 0,0.215644 -0.0952,0.215612 -0.47398,-1.65e-4 -0.53767,-0.306326 -0.62862,-1.194855 -0.17774,-1.736418 0.31752,-0.381381 1.99881,-1.094635 3.73261,-1.583479 1.47366,-0.4155 3.52847,-0.403479 3.70731,0.02169 0.2101,0.49949 -0.32797,0.933622 -1.39596,1.1263 -0.80541,0.145305 -1.04478,0.316436 -1.44898,1.03592 -0.26631,0.474024 -0.56928,0.894291 -0.67328,0.933928 -0.104,0.03964 -0.18909,0.206473 -0.18909,0.370748 0,0.356974 -0.72867,0.746298 -1.39678,0.746298 -0.26398,0 -0.7509,-0.266556 -1.08204,-0.592347 z M 56.671847,26.257448 c 0,-0.111893 0.106646,-0.263572 0.236991,-0.337064 0.130345,-0.07349 0.236991,0.01805 0.236991,0.203442 0,0.185385 -0.106646,0.337064 -0.236991,0.337064 -0.130345,0 -0.236991,-0.09155 -0.236991,-0.203442 z"
       id="path3724"
       inkscape:connector-curvature="0"
       sodipodi:nodetypes="cccscccccccsssccscccssccccccsccsscccscssssscccsccccsccscccccccsccccscsccsscscscscccsccsscccscccsccsccccscccscccccccsccccsscssccscccccscccccssccccsscscscccccsscccscccscccssccscccssccccccsccscscccsscccccccccccssccsccccccsccccsssccsccccccsscccsccccsscsccccsccccccsccccccccccccccccccsccccccccccscccssccscsscscscccsccssssssscccsscccsssccscscccsccssccscsscccsscccscsccccccccsscccscscsscscccccscccsccccccccccccccccccccccccccsccccsccsccccccccccccccscssccccccccccccscssccccsccccscscssscccssssscccscscssccccccscsccccccscccccssssssscsccsccssccccccssccccsssccscccccccsccccccccccccccssccccscccccccccccssccccsccccssccccsccccccccccccccscsccscsscccccsssccccssccccccccsssccscccccccsccccccscsccsccccccccscccccsccsccscsscccsssccscsscccsccccsccsccccsccsccccssssscccccccscscccccccssscccsccccssccsccscsccsscccssssccscccsscccccsccccccccsscccscscsccscccscccccccccsccccscccccccccccccccssscsccccccscsccsccssccscsss" />
    <path
       style="fill:#004464;stroke-width:0.03253982;fill-opacity:1"
       d="m 151.68722,60.933572 c -0.2903,-0.126956 -0.3808,-0.151438 -0.60198,-0.162856 -0.23967,-0.01237 -0.42007,-0.04561 -0.58572,-0.107929 -0.11204,-0.04215 -0.37163,-0.09826 -0.45458,-0.09826 -0.0437,0 -0.13338,-0.03661 -0.19931,-0.08135 -0.0865,-0.05867 -0.16318,-0.08135 -0.27518,-0.08135 -0.13483,0 -0.18033,-0.01953 -0.34526,-0.148209 -0.3659,-0.285474 -0.47341,-0.34498 -0.59671,-0.330279 -0.0998,0.0119 -0.13473,-0.0059 -0.28278,-0.144443 -0.10383,-0.09716 -0.19862,-0.158025 -0.24609,-0.158025 -0.0439,0 -0.11843,-0.04329 -0.17278,-0.10037 -0.12742,-0.133806 -0.36896,-0.308393 -0.46978,-0.339553 -0.0447,-0.01383 -0.13637,-0.05986 -0.20362,-0.102299 -0.0673,-0.04244 -0.26205,-0.127119 -0.4329,-0.188182 -0.25475,-0.09105 -0.32736,-0.105198 -0.40357,-0.07863 -0.11112,0.03874 -0.2568,-0.02582 -0.51012,-0.226054 -0.0895,-0.07076 -0.21296,-0.155 -0.27433,-0.187204 -0.11567,-0.0607 -0.37311,-0.07972 -0.52229,-0.0386 -0.0642,0.01768 -0.11257,0.0038 -0.19524,-0.05613 -0.27792,-0.201356 -0.54952,-0.375175 -0.58816,-0.37641 -0.0772,-0.0025 -0.27416,-0.207638 -0.35351,-0.368193 -0.0875,-0.177001 -0.24448,-0.346235 -0.32147,-0.34651 -0.1509,-4.92e-4 -0.29725,-0.07285 -0.34841,-0.172167 -0.0526,-0.102165 -0.12473,-0.168595 -0.25526,-0.235213 -0.0359,-0.01835 -0.0704,-0.06889 -0.0766,-0.112332 -0.01,-0.06904 -0.005,-0.07355 0.0407,-0.03588 0.047,0.03903 0.0657,0.02678 0.0562,-0.03691 -0.002,-0.01278 0.0183,-0.01487 0.045,-0.0046 0.0715,0.02743 0.06,-0.06542 -0.0167,-0.134812 -0.0409,-0.03697 -0.0651,-0.04409 -0.0651,-0.01912 0,0.02497 -0.0242,0.03208 -0.0651,0.01912 -0.0358,-0.01136 -0.0651,-0.0066 -0.0651,0.0106 0,0.01719 -0.0198,0.03886 -0.044,0.04816 -0.033,0.01265 -0.0417,-0.01265 -0.0347,-0.100474 0.0102,-0.129079 0.11196,-0.232914 0.22937,-0.234141 0.0963,-9.84e-4 0.13157,-0.0548 0.16807,-0.256082 0.0248,-0.137033 0.0209,-0.201012 -0.0184,-0.301077 -0.0448,-0.114134 -0.0448,-0.132854 -6e-5,-0.183929 0.15695,-0.179017 0.20348,-0.414778 0.15249,-0.772738 -0.0472,-0.33165 -0.0572,-0.739345 -0.0226,-0.927384 0.0162,-0.08808 0.0133,-0.211267 -0.007,-0.309128 -0.0935,-0.445658 -0.11064,-0.60631 -0.0677,-0.632872 0.03,-0.01857 0.0317,-0.03253 0.006,-0.04857 -0.0228,-0.0141 -0.0258,-0.04154 -0.008,-0.07343 0.017,-0.03035 0.0145,-0.08798 -0.006,-0.142661 -0.0276,-0.0732 -0.0195,-0.144197 0.0404,-0.351282 0.0412,-0.14275 0.0652,-0.275445 0.0532,-0.294877 -0.012,-0.01943 0.008,-0.116229 0.0454,-0.215102 0.037,-0.09887 0.0673,-0.206442 0.0673,-0.239045 0,-0.0326 0.0512,-0.170201 0.11389,-0.305775 0.0626,-0.135574 0.11399,-0.273084 0.1141,-0.305576 1.2e-4,-0.03249 0.10773,-0.215806 0.23914,-0.407363 0.13141,-0.191557 0.27206,-0.439172 0.31256,-0.550256 0.0405,-0.111084 0.10123,-0.247214 0.13495,-0.302511 0.0337,-0.0553 0.0624,-0.159112 0.0638,-0.230699 10e-4,-0.07159 0.0286,-0.174088 0.0606,-0.227779 0.055,-0.09234 0.0551,-0.102018 0.002,-0.178969 -0.0306,-0.04474 -0.065,-0.129799 -0.0763,-0.189015 -0.0167,-0.08722 -0.006,-0.122747 0.0588,-0.187104 0.0437,-0.04369 0.0928,-0.07944 0.10914,-0.07944 0.0163,0 0.0688,-0.05916 0.11669,-0.131459 0.0478,-0.0723 0.12473,-0.148651 0.17084,-0.169664 0.0734,-0.03343 0.0914,-0.02893 0.14388,0.03592 0.04,0.04933 0.0541,0.10396 0.0422,0.163302 -0.0155,0.07738 8.3e-4,0.101507 0.12326,0.182459 0.16283,0.107665 0.51529,0.467937 0.51529,0.526713 0,0.02187 0.0603,0.135868 0.13391,0.253331 0.0833,0.132886 0.12765,0.237515 0.11733,0.276955 -0.009,0.03486 0.003,0.08969 0.0278,0.121844 0.0244,0.03215 0.0448,0.08064 0.0454,0.107752 0.002,0.118573 0.36459,0.389232 0.55421,0.414262 0.12878,0.017 0.19524,0.0601 0.19524,0.126623 0,0.05339 0.1863,0.174209 0.2689,0.174384 0.0316,6.5e-5 0.0901,0.01704 0.13016,0.03772 0.04,0.02068 0.0941,0.04748 0.12009,0.05955 0.026,0.01208 0.0958,0.110289 0.15503,0.218258 0.1055,0.192248 0.11461,0.199529 0.44078,0.352174 0.29972,0.140265 0.37465,0.166579 0.50044,0.175745 0.0205,0.0015 0.12784,0.09139 0.23861,0.199783 0.2935,0.28719 0.41082,0.313597 0.63467,0.142861 0.0574,-0.04379 0.13508,-0.07962 0.1726,-0.07962 0.0375,0 0.0767,-0.0137 0.087,-0.03044 0.0103,-0.01674 0.0545,0.0052 0.0981,0.04881 0.0436,0.04359 0.0946,0.07925 0.11327,0.07925 0.0187,0 0.034,0.02092 0.034,0.04649 0,0.02557 0.023,0.0695 0.0511,0.09762 0.0281,0.02812 0.0411,0.05113 0.0288,0.05113 -0.0123,0 0.001,0.03609 0.0302,0.08021 0.0289,0.04411 0.0525,0.110006 0.0525,0.146429 0,0.03642 0.0123,0.06622 0.0273,0.06622 0.0373,0 0.10791,0.160711 0.0861,0.195999 -0.01,0.01563 0.0597,0.08554 0.15415,0.155348 0.15812,0.116875 0.39022,0.347563 0.41965,0.417109 0.0376,0.08878 0.37647,0.296815 0.5791,0.355487 0.0432,0.01252 0.19353,0.138149 0.33399,0.279176 0.14046,0.141027 0.27886,0.256412 0.30757,0.256412 0.0287,0 0.10386,0.04537 0.16702,0.100828 0.0632,0.05545 0.17858,0.12815 0.25648,0.161543 0.0779,0.03339 0.14165,0.07522 0.14165,0.09294 0,0.01772 0.0549,0.04149 0.12202,0.05283 0.1432,0.02418 0.33353,0.104605 0.33353,0.140935 0,0.01396 0.0419,0.01923 0.093,0.01172 0.0747,-0.01096 0.0968,6.15e-4 0.11189,0.05846 0.0181,0.06913 0.029,0.07116 0.26491,0.04905 0.233,-0.02183 0.24604,-0.01956 0.24604,0.04288 0,0.07807 0.0574,0.120914 0.14302,0.106794 0.0535,-0.0088 0.0592,0.0049 0.043,0.104551 -0.0207,0.127567 0.0347,0.200099 0.15273,0.200099 0.0449,0 0.0632,0.01654 0.054,0.04881 -0.008,0.02685 -0.0118,0.12354 -0.009,0.214878 0.004,0.147305 -0.004,0.170202 -0.0755,0.202675 -0.0568,0.02588 -0.0807,0.06305 -0.0814,0.126792 -6.2e-4,0.0496 -0.0223,0.118267 -0.0483,0.152593 -0.0341,0.04501 -0.0376,0.07406 -0.0126,0.104193 0.0191,0.02298 0.0255,0.07068 0.0143,0.106008 -0.0136,0.04281 -0.001,0.07492 0.0369,0.09629 0.0508,0.02843 0.0522,0.04153 0.0125,0.11574 -0.0392,0.07331 -0.0372,0.100898 0.0163,0.22254 0.0336,0.07637 0.0881,0.176672 0.12117,0.222889 0.0331,0.04622 0.0559,0.119431 0.0508,0.162698 -0.005,0.04327 0.003,0.141817 0.0174,0.218997 0.0204,0.106916 0.0153,0.153401 -0.0214,0.195239 -0.0265,0.0302 -0.0582,0.08782 -0.0705,0.128051 -0.0123,0.04023 -0.0543,0.08131 -0.0933,0.0913 -0.0936,0.02394 -0.25001,0.246106 -0.25001,0.35518 0,0.04919 -0.014,0.07757 -0.0325,0.0661 -0.0196,-0.01213 -0.0325,0.03156 -0.0325,0.110048 0,0.07159 0.0162,0.140179 0.036,0.152424 0.0242,0.01495 0.0289,-2.46e-4 0.0143,-0.04623 -0.0229,-0.07209 0.0253,-0.196896 0.0565,-0.146401 0.01,0.01616 0.008,0.07969 -0.005,0.141177 -0.0204,0.09957 -0.0388,0.115632 -0.16823,0.146944 -0.14129,0.03417 -0.14627,0.03972 -0.1779,0.198509 -0.0399,0.200067 -0.11618,0.321064 -0.24435,0.387343 -0.0818,0.04231 -0.0973,0.06976 -0.0973,0.172407 0,0.12432 0.0465,0.21649 0.18529,0.367516 0.0763,0.08299 0.0767,0.08633 0.0202,0.18476 -0.0492,0.08571 -0.0517,0.116237 -0.0176,0.210645 0.0612,0.169195 0.0509,0.200787 -0.10121,0.31 -0.13877,0.09966 -0.40467,0.451159 -0.53474,0.706904 -0.17022,0.33466 -0.31654,0.363898 -0.78841,0.157536 z m -6.85406,-3.346251 c -0.0103,-0.02674 -0.032,-0.04037 -0.0483,-0.03029 -0.0341,0.02109 -0.007,0.07891 0.0374,0.07891 0.0163,0 0.0212,-0.02188 0.0109,-0.04862 z m -0.33127,-0.348906 c -0.0233,-0.02335 -0.0385,-0.02527 -0.0385,-0.0049 0,0.04343 0.0385,0.08192 0.0602,0.0602 0.009,-0.0092 -5.2e-4,-0.03414 -0.0217,-0.05532 z m -0.55914,-0.903044 c 0,-0.04405 -0.0155,-0.05811 -0.0496,-0.04501 -0.0383,0.01469 -0.0411,0.02935 -0.0123,0.06406 0.0502,0.06043 0.0619,0.05681 0.0619,-0.01905 z m -0.0611,-0.250764 c -0.0284,-0.04877 -0.0347,-0.05018 -0.0355,-0.0079 -9.9e-4,0.0548 0.0332,0.10414 0.0562,0.08108 0.008,-0.0076 -0.002,-0.04055 -0.0207,-0.07322 z m -0.47293,-1.857045 c -0.0356,-0.03555 -0.0599,0.02098 -0.0344,0.07978 0.0242,0.05575 0.0259,0.0557 0.0394,-0.0011 0.008,-0.03272 0.006,-0.06811 -0.005,-0.07864 z m 1.40982,-5.444234 0.0516,-0.07957 -0.0796,0.0516 c -0.0863,0.05597 -0.134,0.14433 -0.0656,0.121523 0.0231,-0.0077 0.0652,-0.04979 0.0935,-0.09355 z m 9.86016,-1.527588 c -0.0167,0 -0.0303,-0.01551 -0.0303,-0.03446 0.18559,-0.157594 0.35308,0.298955 0.0303,0.03446 z"
       id="path3748"
       inkscape:connector-curvature="0"
       sodipodi:nodetypes="cccscssccscccccccccccccccscccscsccccccscccccccccsscccccccccssccscsscccsscsccccccsccsscscsscccccsccscscccsccsccccccscccccccccscscccccccscccccccccscccscccsccsccccccccccscscsccc" />
    <circle
       style="opacity:0.35;fill:none;stroke:#004564;stroke-width:0.765;stroke-miterlimit:4;stroke-dasharray:none;stroke-opacity:1"
       id="path3750"
       cx="147.51192"
       cy="55.284489"
       r="12.170834" />
  </g>
</svg>
